<svg width="713" height="197" viewBox="0 0 713 197" fill="none" xmlns="http://www.w3.org/2000/svg">
<path d="M540.613 196H479.613L492.113 135.5H511.613L508.613 149H539.113L536.113 162.5H535.613H505.613L501.613 179.5H544.113L540.613 196Z" fill="#16AFD1"/>
<path d="M558.613 113H497.113L493.446 129.5L554.613 130L558.613 113Z" fill="#16AFD1"/>
<path d="M540.613 196H479.613L492.113 135.5H511.613L508.613 149H539.113L536.113 162.5H535.613H505.613L501.613 179.5H544.113L540.613 196Z" stroke="#16AFD1"/>
<path d="M558.613 113H497.113L493.446 129.5L554.613 130L558.613 113Z" stroke="#16AFD1"/>
<path d="M193.113 196.5H175.613L188.613 134.5H205.613L204.613 139.5C207.785 135.926 209.374 134.621 211.613 134.5H213.613H234.113L230.613 149.5H230.113H205.113C202.888 149.52 202.175 150.247 201.613 152.5L193.113 196.5Z" fill="#0C5588" stroke="#0C5588"/>
<path d="M278.613 196H261.113L274.113 134H291.113L290.113 139C293.285 135.426 294.874 134.121 297.113 134H299.113H319.613H332.113C338.157 134.227 340.113 139.5 338.613 146.5L327.613 196H310.113L319.613 153C319.903 150.167 319.424 149.062 316.113 149H315.613H290.613C288.388 149.02 287.675 149.747 287.113 152L278.613 196Z" fill="#0C5588" stroke="#0C5588"/>
<path d="M278.613 196H261.113L274.113 134H291.113L290.113 139C293.285 135.426 294.874 134.121 297.113 134H299.113H319.613H332.113C338.157 134.227 340.113 139.5 338.613 146.5L327.613 196H310.113L319.613 153C319.903 150.167 319.424 149.062 316.113 149H315.613H290.613C288.388 149.02 287.675 149.747 287.113 152L278.613 196Z" fill="#0C5588" stroke="#0C5588"/>
<path d="M248.613 196H231.113L244.113 134H261.113L248.613 196Z" fill="#0C5588" stroke="#0C5588"/>
<path d="M166.613 58.5C153.368 64.7125 146.378 67.3309 134.613 74V65.5L148.613 58.5V49.5C148.597 48.3565 148.986 47.9007 150.613 47.5C151.348 47.2875 151.632 47.102 151.613 46.5V38C151.595 36.6546 152.069 36.1752 154.113 36C155.16 35.9648 155.607 35.8963 155.613 35.5V12.5C155.613 12.5 155.613 11.5 156.613 11.5H158.613V1.5C158.613 1.5 158.613 0.5 159.613 0.5H162.613C163.613 0.5 163.613 1.5 163.613 1.5V40.5H166.613V58.5Z" fill="#0D5587" stroke="#0C5588"/>
<path d="M0.612793 196.5H16.1128L26.6128 146.5L36.6128 196.5H51.1128L80.6128 147.5L70.6128 196.5H86.1128L103.613 113.5H83.6128L48.6128 171L38.1128 113.5H17.6128L0.612793 196.5Z" fill="#0D5587" stroke="#0C5588"/>
<path d="M199.613 44.5L173.113 56.5L172.613 56.6749V38C172.604 37.7249 172.716 37.617 173.113 37.5H174.613V34.5H172.113C171.727 34.4949 171.625 34.3783 171.613 34L171.613 30C171.609 29.6814 171.735 29.5823 172.113 29.5C172.45 29.5016 172.579 29.4194 172.613 29V22C172.604 21.6001 172.717 21.4944 173.113 21.5L179.613 21.5V14C179.607 13.6038 179.72 13.4974 180.113 13.5H186.113C186.416 13.5017 186.506 13.6464 186.613 14V21.5L201.113 21.5C201.32 21.4992 201.431 21.5861 201.613 22V32.5C201.611 33.2624 201.498 33.4768 201.113 33.5L199.113 33.5C198.737 33.5006 198.611 33.5915 198.613 34V36C198.61 36.2601 198.681 36.382 199.113 36.5C199.337 36.489 199.445 36.6053 199.613 37V37.5V44.5Z" fill="#0D5587" stroke="#0C5588"/>
<path d="M121.343 116.5H166.113C169.786 97.3531 185.613 75 245.613 48L246.613 47.5L246.719 47.447C250.662 45.4789 253.399 44.3044 257.613 44.5C330.348 55.3026 378.077 56.0395 401.613 45.5C404.113 44 403.913 42.4418 402.113 42.5H377.613C375.259 42.5764 374.688 42.1537 375.113 40.5C376.863 33.0094 376.818 29.7994 371.113 29.5C324.781 25.9271 255.431 32.1019 225.613 44.5C222.113 47 218.61 46.9092 217.113 45C215.113 43 213.117 43.1321 209.613 44.5C159.497 67.0968 123.796 84.5168 118.613 90.5C114.613 95 114.583 98.916 114.613 105.5C114.613 109.5 117.719 115.775 121.343 116.5Z" fill="#0C5588"/>
<path d="M246.613 47.5C246.648 47.4823 246.684 47.4646 246.719 47.447M246.719 47.447C250.662 45.4789 253.399 44.3044 257.613 44.5C330.348 55.3026 378.077 56.0395 401.613 45.5C404.113 44 403.913 42.4418 402.113 42.5H377.613C375.259 42.5764 374.688 42.1537 375.113 40.5C376.863 33.0094 376.818 29.7994 371.113 29.5C324.781 25.9271 255.431 32.1019 225.613 44.5C222.113 47 218.61 46.9092 217.113 45C215.113 43 213.117 43.1321 209.613 44.5C159.497 67.0968 123.796 84.5168 118.613 90.5C114.613 95 114.583 98.916 114.613 105.5C114.613 109.5 117.719 115.775 121.343 116.5H166.113C169.786 97.3531 185.613 75 245.613 48L246.719 47.447Z" stroke="#0C5588"/>
<path d="M340.113 116.5H173.113C175.613 95.5 205.176 71.814 236.113 58C247.732 52.5709 252.863 51.0341 258.613 52C328.374 61.532 360.755 60.4562 396.613 53C403.226 51.6249 404.616 51.5691 401.613 53C362.812 70.2165 342.974 94.3787 341.613 114.5C341.75 116.05 341.492 116.563 340.113 116.5Z" fill="#0D5587" stroke="#0C5588"/>
<path d="M113.613 134.5L111.113 147.5L151.613 147.5C155.113 147.5 156.162 147.969 155.613 151.5L150.113 179.5C149.95 180.92 149.615 181.352 148.613 181.5H121.613C119.472 181.444 118.707 181.068 119.113 179L120.613 170.5C120.924 168.855 121.559 168.53 123.113 168.5H146.113L148.613 157.5H113.613C110.113 157.5 106.624 160.567 105.613 163.5L100.613 190C100.613 194 103.877 196.113 106.113 196.5H163.113L174.113 144.5C175.113 139 173.837 134.847 168.613 134.5H113.613Z" fill="#0D5587" stroke="#0C5588"/>
<path d="M401.113 196H348.613C343.613 196 340.567 192.399 341.613 185.5L350.613 142.5C351.613 138 355.064 134.809 359.613 134.5H408.613C413.269 134.373 415.223 138.358 414.613 142L409.113 170.5H367.613L370.113 159.5H394.613L396.613 150.5C396.822 149.012 396.541 148.532 395.113 148.5H368.113C366.776 148.444 366.448 148.752 366.113 149.5L359.613 180C359.376 181.117 359.851 181.425 361.613 181.5H404.113L401.113 196Z" fill="#0D5587" stroke="#0C5588"/>
<path d="M450.313 196H431.665L444.769 130.395H425.113L429.145 113H488.113L484.081 130.395H463.921L450.313 196Z" fill="#16AFD1" stroke="#16AFD1"/>
<path d="M613.613 196H563.613C559.613 196 554.702 192.212 556.113 183L567.113 129.5C568.668 119.422 574.293 113.326 579.613 113.5H631.613L628.113 130.5H588.613C586.585 130.509 585.784 131.302 585.113 134.5L577.113 172.5C575.725 177.689 576.613 179 578.113 179H617.613L614.113 196H613.613Z" fill="#16AFD1" stroke="#16AFD1"/>
<path d="M644.113 196H625.613L642.613 113.5H660.613L654.113 146.5H686.613L693.113 113.5H712.113L694.613 196H676.113L683.113 162H651.113L644.113 196Z" fill="#16AFD1" stroke="#16AFD1"/>
</svg>
