<svg width="290" height="116" viewBox="0 0 290 116" fill="none" xmlns="http://www.w3.org/2000/svg">
<path d="M225.5 115.27H58.5002C61.0002 94.2703 90.5638 70.5843 121.5 56.7703C133.12 51.3412 138.251 49.8044 144 50.7703C213.762 60.3023 246.142 59.2265 282 51.7703C288.613 50.3952 290.003 50.3394 287 51.7703C248.2 68.9868 228.362 93.1491 227 113.27C227.138 114.821 226.88 115.333 225.5 115.27Z" fill="#0D5587" stroke="#0C5588"/>
<path d="M86.5002 43.5L60.0002 55.5L59.5002 55.6749V37C59.4912 36.725 59.6036 36.617 60.0002 36.5H61.5002V33.5H59.0002C58.6148 33.4949 58.5124 33.3783 58.5002 33L58.5002 29C58.4961 28.6814 58.6223 28.5824 59.0002 28.5C59.3376 28.5016 59.4667 28.4195 59.5002 28V21C59.4909 20.6001 59.6039 20.4945 60.0002 20.5L66.5002 20.5V13C66.4942 12.6039 66.6074 12.4974 67.0002 12.5H73.0002C73.3032 12.5017 73.3931 12.6464 73.5002 13V20.5L88.0002 20.5C88.2074 20.4992 88.3183 20.5861 88.5002 21V31.5C88.4979 32.2625 88.3854 32.4769 88.0002 32.5L86.0002 32.5C85.6242 32.5007 85.4984 32.5915 85.5002 33V35C85.497 35.2601 85.5683 35.3821 86.0002 35.5C86.2242 35.4891 86.3326 35.6054 86.5002 36V36.5V43.5Z" fill="#0D5587" stroke="#0C5588"/>
<path d="M7.2348 115.505H52.0042C55.6777 96.3582 71.5042 74.005 131.504 47.005L132.504 46.505L132.61 46.4521C136.553 44.4839 139.29 43.3095 143.504 43.505C216.239 54.3077 263.968 55.0445 287.504 44.505C290.004 43.005 289.804 41.4468 288.004 41.505H263.504C261.15 41.5814 260.579 41.1587 261.004 39.505C262.755 32.0145 262.71 28.8045 257.004 28.505C210.672 24.9322 141.322 31.107 111.504 43.505C108.004 46.005 104.501 45.9142 103.004 44.0051C101.004 42.005 99.0083 42.1371 95.5042 43.5051C45.3885 66.1018 9.68783 83.5219 4.50418 89.5051C0.50418 94.0051 0.474139 97.921 0.504173 104.505C0.504173 108.505 3.61039 114.78 7.2348 115.505Z" fill="#0C5588"/>
<path d="M132.504 46.505C132.54 46.4873 132.575 46.4697 132.61 46.4521M132.61 46.4521C136.553 44.4839 139.29 43.3095 143.504 43.505C216.239 54.3077 263.968 55.0445 287.504 44.505C290.004 43.005 289.804 41.4468 288.004 41.505H263.504C261.15 41.5814 260.579 41.1587 261.004 39.505C262.755 32.0145 262.71 28.8045 257.004 28.505C210.672 24.9322 141.322 31.107 111.504 43.505C108.004 46.005 104.501 45.9142 103.004 44.0051C101.004 42.005 99.0083 42.1371 95.5042 43.5051C45.3885 66.1018 9.68783 83.5219 4.50418 89.5051C0.50418 94.0051 0.474139 97.921 0.504173 104.505C0.504173 108.505 3.61039 114.78 7.2348 115.505H52.0042C55.6777 96.3582 71.5042 74.005 131.504 47.005L132.61 46.4521Z" stroke="#0C5588"/>
<path d="M54.5001 58.5C41.2554 64.7125 34.2649 67.3309 22.5001 74V65.5L36.5001 58.5V49.5C36.484 48.3565 36.873 47.9007 38.5001 47.5C39.2353 47.2875 39.5195 47.102 39.5001 46.5V38C39.4822 36.6546 39.9558 36.1752 42.0001 36C43.0474 35.9648 43.494 35.8963 43.5001 35.5V12.5C43.5001 12.5 43.5001 11.5 44.5001 11.5H46.5001V1.5C46.5001 1.5 46.5001 0.5 47.5001 0.5H50.5001C51.5001 0.5 51.5001 1.5 51.5001 1.5V40.5H54.5001V58.5Z" fill="#0D5587" stroke="#0C5588"/>
</svg>
